<svg width="55" height="35" viewBox="0 0 55 35" fill="none" xmlns="http://www.w3.org/2000/svg">
<path d="M44.9453 14.7292C44.9453 14.5833 44.9699 14.4375 44.9699 14.2917C44.9699 6.39236 38.6105 0 30.7656 0C25.106 0 20.2444 3.32986 17.9609 8.14236C16.9665 7.6441 15.8493 7.35243 14.6708 7.35243C11.0491 7.35243 8.02902 10.0139 7.45201 13.4896C3.10603 14.9722 0 19.092 0 23.941C0 30.0417 4.92299 35 10.9877 35H23.5714V25.2778H17.654L27.5 15.1059L37.346 25.2656H31.4286V34.9878H44.9699C50.519 34.9878 55 30.4306 55 24.8524C55 19.2743 50.4944 14.7413 44.9453 14.7292Z" fill="#235137"/>
</svg>
